<?xml version="1.0" encoding="UTF-8" standalone="no"?><!DOCTYPE svg PUBLIC "-//W3C//DTD SVG 1.1//EN" "http://www.w3.org/Graphics/SVG/1.1/DTD/svg11.dtd"><svg width="100%" height="100%" viewBox="0 0 32 32" version="1.1" xmlns="http://www.w3.org/2000/svg" xmlns:xlink="http://www.w3.org/1999/xlink" xml:space="preserve" style="fill-rule:evenodd;clip-rule:evenodd;stroke-linejoin:round;stroke-miterlimit:1.41421;"><path d="M21,16c0,2.753 -2.247,5 -5,5c-2.753,0 -5,-2.247 -5,-5c0,-2.753 2.247,-5 5,-5c2.753,0 5,2.247 5,5Zm2.695,0c0,-4.257 -3.438,-7.695 -7.695,-7.695c-4.257,0 -7.695,3.438 -7.695,7.695c0,4.257 3.438,7.695 7.695,7.695c4.257,0 7.695,-3.438 7.695,-7.695Zm2.108,-8.007c0,-0.996 -0.8,-1.796 -1.796,-1.796c-0.996,0 -1.797,0.8 -1.797,1.796c0,0.996 0.801,1.797 1.797,1.797c0.996,0 1.796,-0.801 1.796,-1.797l0,0Zm-9.803,-4.296c2.187,0 6.875,-0.176 8.847,0.605c0.683,0.273 1.191,0.606 1.718,1.133c0.527,0.527 0.86,1.035 1.133,1.718c0.781,1.972 0.605,6.66 0.605,8.847c0,2.187 0.176,6.875 -0.605,8.847c-0.273,0.683 -0.606,1.191 -1.133,1.718c-0.527,0.527 -1.035,0.86 -1.718,1.133c-1.972,0.781 -6.66,0.605 -8.847,0.605c-2.187,0 -6.875,0.176 -8.847,-0.605c-0.683,-0.273 -1.191,-0.606 -1.718,-1.133c-0.527,-0.527 -0.86,-1.035 -1.133,-1.718c-0.781,-1.972 -0.605,-6.66 -0.605,-8.847c0,-2.187 -0.176,-6.875 0.605,-8.847c0.273,-0.683 0.606,-1.191 1.133,-1.718c0.527,-0.527 1.035,-0.86 1.718,-1.133c1.972,-0.781 6.66,-0.605 8.847,-0.605l0,0Zm14.999,12.303c0,-2.07 0.019,-4.12 -0.098,-6.191c-0.117,-2.402 -0.664,-4.531 -2.422,-6.288c-1.757,-1.758 -3.886,-2.305 -6.288,-2.422c-2.071,-0.117 -4.121,-0.098 -6.191,-0.098c-2.07,0 -4.12,-0.019 -6.191,0.098c-2.402,0.117 -4.531,0.664 -6.288,2.422c-1.758,1.757 -2.305,3.886 -2.422,6.288c-0.117,2.071 -0.098,4.121 -0.098,6.191c0,2.07 -0.019,4.12 0.098,6.191c0.117,2.402 0.664,4.531 2.422,6.288c1.757,1.758 3.886,2.305 6.288,2.422c2.071,0.117 4.121,0.098 6.191,0.098c2.07,0 4.12,0.019 6.191,-0.098c2.402,-0.117 4.531,-0.664 6.288,-2.422c1.758,-1.757 2.305,-3.886 2.422,-6.288c0.117,-2.071 0.098,-4.121 0.098,-6.191Z" style="fill:#fff;fill-rule:nonzero;"/></svg>